<svg width="60" height="82" viewBox="0 0 60 82" fill="none" xmlns="http://www.w3.org/2000/svg">
<path d="M13.8 75C10.9357 75 8.18864 73.5647 6.16325 71.0099C4.13785 68.4551 3 64.99 3 61.377V30.7252C3 27.1121 4.13785 23.6471 6.16325 21.0923C8.18864 18.5375 10.9357 17.1022 13.8 17.1022H16.5C17.2161 17.1022 17.9028 17.461 18.4092 18.0997C18.9155 18.7384 19.2 19.6047 19.2 20.5079C19.2 21.4112 18.9155 22.2775 18.4092 22.9162C17.9028 23.5549 17.2161 23.9137 16.5 23.9137H13.8C12.3678 23.9137 10.9943 24.6313 9.98162 25.9087C8.96893 27.1861 8.4 28.9187 8.4 30.7252V61.377C8.4 63.1835 8.96893 64.916 9.98162 66.1934C10.9943 67.4709 12.3678 68.1885 13.8 68.1885H46.2C47.6299 68.1809 48.999 67.4583 50.007 66.1791C50.5189 65.5374 50.9236 64.7728 51.1972 63.9304C51.4708 63.0881 51.6077 62.1851 51.6 61.2748V30.623C51.6 28.8165 51.0311 27.084 50.0184 25.8066C49.0057 24.5291 47.6322 23.8115 46.2 23.8115H43.5C42.7839 23.8115 42.0972 23.4527 41.5908 22.814C41.0845 22.1753 40.8 21.309 40.8 20.4058C40.8 19.5025 41.0845 18.6362 41.5908 17.9975C42.0972 17.3588 42.7839 17 43.5 17H46.2C49.0643 17 51.8114 18.4353 53.8368 20.9901C55.8621 23.5449 57 27.01 57 30.623V61.2748C57 64.8879 55.8621 68.3529 53.8368 70.9077C51.8114 73.4626 49.0643 74.8978 46.2 74.8978H13.8V75Z" fill="black"/>
<path d="M25 24.7708C24.337 24.7708 23.7011 24.4109 23.2322 23.7701C22.7634 23.1294 22.5 22.2603 22.5 21.3542C22.5 20.448 22.7634 19.579 23.2322 18.9382C23.7011 18.2975 24.337 17.9375 25 17.9375H35C35.663 17.9375 36.2989 18.2975 36.7678 18.9382C37.2366 19.579 37.5 20.448 37.5 21.3542C37.5 22.2603 37.2366 23.1294 36.7678 23.7701C36.2989 24.4109 35.663 24.7708 35 24.7708H25Z" fill="black"/>
<path d="M21.448 27C20.5923 26.9893 19.747 26.7823 18.9614 26.3908C18.1757 25.9994 17.4655 25.4314 16.872 24.72C16.2782 24.0344 15.8072 23.2205 15.486 22.3249C15.1648 21.4292 14.9997 20.4694 15.0001 19.5001V13.5001C14.9966 12.5166 15.1616 11.542 15.4854 10.6323C15.8092 9.72252 16.2855 8.89549 16.887 8.19866C17.4885 7.50183 18.2034 6.94892 18.9905 6.57164C19.7777 6.19437 20.6217 6.00016 21.474 6.00017V6.00017C22.3226 5.9935 23.164 6.18095 23.9494 6.55169C24.7348 6.92244 25.4488 7.46912 26.05 8.16015C26.6626 8.85299 27.1503 9.67888 27.485 10.5902C27.8197 11.5016 27.9947 12.4803 28 13.4701V19.4701C28 21.4671 27.3124 23.3824 26.0886 24.7945C24.8647 26.2067 23.2048 27 21.474 27V27H21.448ZM21.448 12.0001C21.1032 12.0001 20.7726 12.1582 20.5288 12.4395C20.285 12.7208 20.148 13.1023 20.148 13.5001V19.5001C20.1547 19.8955 20.2938 20.2726 20.5362 20.5522C20.7785 20.8319 21.1053 20.9924 21.448 21C21.6243 21.004 21.7996 20.9674 21.9635 20.8923C22.1273 20.8172 22.2766 20.7051 22.4025 20.5627C22.5284 20.4202 22.6284 20.2502 22.6967 20.0626C22.7649 19.875 22.8001 19.6735 22.8 19.4701V13.4701C22.7932 13.0775 22.6533 12.7036 22.4102 12.4288C22.1671 12.154 21.8403 12 21.5 12.0001H21.448Z" fill="black"/>
<path d="M38.448 27C36.7353 26.9764 35.0992 26.1768 33.8929 24.7736C32.6866 23.3705 32.0068 21.4764 32.0001 19.5V13.5C31.9966 12.5165 32.1616 11.5419 32.4854 10.6321C32.8092 9.72237 33.2855 8.89534 33.887 8.19851C34.4885 7.50167 35.2034 6.94875 35.9905 6.57148C36.7777 6.1942 37.6217 5.99999 38.474 6V6C40.1958 5.99994 41.8479 6.78503 43.0703 8.18423C44.2927 9.58343 44.9863 11.4833 45 13.47V19.47C45.0001 21.4567 44.3196 23.363 43.107 24.7734C41.8944 26.1838 40.2478 26.9842 38.526 27V27H38.448ZM38.448 21C38.7928 21 39.1235 20.842 39.3673 20.5607C39.6111 20.2794 39.748 19.8978 39.748 19.5V13.5C39.748 13.1022 39.6111 12.7206 39.3673 12.4393C39.1235 12.158 38.7928 12 38.448 12C38.1032 12 37.7726 12.158 37.5288 12.4393C37.285 12.7206 37.148 13.1022 37.148 13.5V19.5C37.148 19.8978 37.285 20.2794 37.5288 20.5607C37.7726 20.842 38.1032 21 38.448 21Z" fill="black"/>
<path d="M7.5 32C6.83696 32 6.20107 31.4732 5.73223 30.5355C5.26339 29.5979 5 28.3261 5 27C5 25.6739 5.26339 24.4021 5.73223 23.4645C6.20107 22.5268 6.83696 22 7.5 22H52.5C53.163 22 53.7989 22.5268 54.2678 23.4645C54.7366 24.4021 55 25.6739 55 27C55 28.3261 54.7366 29.5979 54.2678 30.5355C53.7989 31.4732 53.163 32 52.5 32H7.5Z" fill="black"/>
<path d="M37 71.75C37 72.3467 36.842 72.919 36.5607 73.341C36.2794 73.7629 35.8978 74 35.5 74C35.1022 74 34.7206 73.7629 34.4393 73.341C34.158 72.919 34 72.3467 34 71.75L34 31.25C34 30.6533 34.158 30.081 34.4393 29.659C34.7206 29.2371 35.1022 29 35.5 29C35.8978 29 36.2794 29.2371 36.5607 29.659C36.842 30.081 37 30.6533 37 31.25L37 71.75Z" fill="black"/>
<path d="M27 70.75C27 71.3467 26.842 71.919 26.5607 72.341C26.2794 72.7629 25.8978 73 25.5 73C25.1022 73 24.7206 72.7629 24.4393 72.341C24.158 71.919 24 71.3467 24 70.75L24 30.25C24 29.6533 24.158 29.081 24.4393 28.659C24.7206 28.2371 25.1022 28 25.5 28C25.8978 28 26.2794 28.2371 26.5607 28.659C26.842 29.081 27 29.6533 27 30.25L27 70.75Z" fill="black"/>
<path d="M17 70.75C17 71.3467 16.842 71.919 16.5607 72.341C16.2794 72.7629 15.8978 73 15.5 73C15.1022 73 14.7206 72.7629 14.4393 72.341C14.158 71.919 14 71.3467 14 70.75L14 30.25C14 29.6533 14.158 29.081 14.4393 28.659C14.7206 28.2371 15.1022 28 15.5 28C15.8978 28 16.2794 28.2371 16.5607 28.659C16.842 29.081 17 29.6533 17 30.25L17 70.75Z" fill="black"/>
<path d="M46 70.75C46 71.3467 45.842 71.919 45.5607 72.341C45.2794 72.7629 44.8978 73 44.5 73C44.1022 73 43.7206 72.7629 43.4393 72.341C43.158 71.919 43 71.3467 43 70.75L43 30.25C43 29.6533 43.158 29.081 43.4393 28.659C43.7206 28.2371 44.1022 28 44.5 28C44.8978 28 45.2794 28.2371 45.5607 28.659C45.842 29.081 46 29.6533 46 30.25L46 70.75Z" fill="black"/>
<path opacity="0.9" d="M51.3007 39.0018C51.949 39.0001 52.5712 39.1566 53.0303 39.4367C53.4894 39.7168 53.7479 40.0977 53.7489 40.4955C53.75 40.8933 53.4934 41.2755 53.0357 41.558C52.5781 41.8405 51.9567 42.0001 51.3085 42.0018L7.31025 42.1151C6.66197 42.1168 6.03983 41.9604 5.58071 41.6802C5.12158 41.4001 4.86307 41.0192 4.86204 40.6214C4.86102 40.2236 5.11756 39.8414 5.57524 39.5589C6.03292 39.2764 6.65424 39.1168 7.30252 39.1151L51.3007 39.0018Z" fill="black"/>
<path d="M51.4426 49.0063C52.0909 49.0046 52.713 49.1611 53.1721 49.4412C53.6313 49.7213 53.8898 50.1022 53.8908 50.5C53.8918 50.8978 53.6353 51.28 53.1776 51.5625C52.7199 51.845 52.0986 52.0046 51.4503 52.0063L7.4521 52.1196C6.80382 52.1213 6.18168 51.9649 5.72255 51.6848C5.26342 51.4046 5.00491 51.0238 5.00389 50.6259C5.00286 50.2281 5.25941 49.8459 5.71709 49.5634C6.17477 49.281 6.79609 49.1213 7.44437 49.1196L51.4426 49.0063Z" fill="black"/>
<path d="M52.4426 59.0063C53.0909 59.0046 53.713 59.1611 54.1721 59.4412C54.6313 59.7213 54.8898 60.1022 54.8908 60.5C54.8918 60.8978 54.6353 61.28 54.1776 61.5625C53.7199 61.845 53.0986 62.0046 52.4503 62.0063L8.4521 62.1196C7.80382 62.1213 7.18168 61.9649 6.72255 61.6848C6.26342 61.4046 6.00491 61.0238 6.00389 60.6259C6.00286 60.2281 6.25941 59.8459 6.71709 59.5634C7.17477 59.281 7.79609 59.1213 8.44437 59.1196L52.4426 59.0063Z" fill="black"/>
</svg>
