<svg width="500" height="500" viewBox="0 0 500 500" fill="none" xmlns="http://www.w3.org/2000/svg">
<path fill-rule="evenodd" clip-rule="evenodd" d="M500 0V28.0976L28.0976 500H0V471.529L471.529 0H500ZM111.536 500H54.9677L500 54.9677V111.536L111.536 500ZM277.782 0H221.213L0 221.213V277.782L277.782 0ZM0 304.652V361.22L361.22 0H304.652L0 304.652ZM388.09 0H444.659L0 444.659V388.09L388.09 0ZM138.406 500L500 138.406V194.975L194.975 500H138.406ZM388.722 500H445.291L500 445.291V388.722L388.722 500ZM500 500H472.161L500 472.161V500ZM278.413 500H221.845L500 221.845V278.413L278.413 500ZM305.283 500L500 305.283V361.852L361.852 500H305.283ZM0 0H27.466L0 27.466V0ZM0 110.905V54.3361L54.3361 0H110.905L0 110.905ZM194.343 0H137.775L0 137.775V194.343L194.343 0Z" fill="black" fill-opacity="0.2"/>
</svg>
